# xmcd CD database file
#
# Track frame offsets:
#	150
#	16190
#	35760
#	59690
#	75475
#	93260
#	120820
#	136665
#	157107
#	184910
#	202702
#	216977
#	238222
#
# Disc length: 3576 seconds
#
# Revision: 0
# Processed by: cddbd v1.5.2PL0 Copyright (c) Steve Scherf et al.
# Submitted via: CDex 1.70beta2
#
DISCID=a80df60d
DTITLE=Foree "Guitar" Wells - It's A New Day,Brother!
DYEAR=2006
DGENRE=Blues
TTITLE0=It's A New Day Brother!
TTITLE1=Ain't No Fun When The Rabbit's Got The Gun
TTITLE2=Hey Little Bluebird
TTITLE3=Willie's Club 537
TTITLE4=Stop My Drinking
TTITLE5=Walking and Crying
TTITLE6=Take Out Your False Teeth,Mama
TTITLE7=Dice Game
TTITLE8=Midnight Is Falling
TTITLE9=Alley Whipping
TTITLE10=Young Womans Lemonade
TTITLE11=Everybody Get Happy
TTITLE12=Blue After Hours/Walnut Street After Midnight
EXTD=YEAR: 2006
EXTT0=
EXTT1=
EXTT2=
EXTT3=
EXTT4=
EXTT5=
EXTT6=
EXTT7=
EXTT8=
EXTT9=
EXTT10=
EXTT11=
EXTT12=
PLAYORDER=
